<svg width="960" height="600" version="1.1" xmlns="http://www.w3.org/2000/svg"><g></g><g transform="translate(480,300)"><text text-anchor="middle" transform="translate(70,8)rotate(-70)skewX(3.1805546814635176e-15)scale(0.9999999999999999,0.9999999999999999)" style="font-size: 100px; font-family: Impact; fill: rgb(107, 110, 207);">영화</text><text text-anchor="middle" transform="translate(348,1)rotate(70)skewX(-3.1805546814635176e-15)scale(0.9999999999999999,0.9999999999999999)" style="font-size: 69px; font-family: Impact; fill: rgb(156, 158, 222);">진짜</text><text text-anchor="middle" transform="translate(223,-55)rotate(-35)skewX(-3.1805546814635176e-15)scale(0.9999999999999999,0.9999999999999999)" style="font-size: 71px; font-family: Impact; fill: rgb(181, 207, 107);">더</text><text text-anchor="middle" transform="translate(51,-122)" style="font-size: 76px; font-family: Impact; fill: rgb(206, 219, 156);">생각</text><text text-anchor="middle" transform="translate(309,146)rotate(70)skewX(-3.1805546814635176e-15)scale(0.9999999999999999,0.9999999999999999)" style="font-size: 69px; font-family: Impact; fill: rgb(140, 109, 49);">흑인</text><text text-anchor="middle" transform="translate(-184,78)rotate(70)skewX(-3.1805546814635176e-15)scale(0.9999999999999999,0.9999999999999999)" style="font-size: 77px; font-family: Impact; fill: rgb(189, 158, 57);">정말</text><text text-anchor="middle" transform="translate(-337,-125)rotate(70)skewX(-3.1805546814635176e-15)scale(0.9999999999999999,0.9999999999999999)" style="font-size: 69px; font-family: Impact; fill: rgb(231, 203, 148);">보고</text><text text-anchor="middle" transform="translate(303,64)rotate(-35)skewX(-3.1805546814635176e-15)scale(0.9999999999999999,0.9999999999999999)" style="font-size: 76px; font-family: Impact; fill: rgb(132, 60, 57);">최고</text><text text-anchor="middle" transform="translate(-154,-97)rotate(-35)skewX(-3.1805546814635176e-15)scale(0.9999999999999999,0.9999999999999999)" style="font-size: 73px; font-family: Impact; fill: rgb(173, 73, 74);">연기</text><text text-anchor="middle" transform="translate(-187,-1)rotate(0)scale(1,1)" style="font-size: 74px; font-family: Impact; fill: rgb(231, 150, 156);">것</text><text text-anchor="middle" transform="translate(349,-255)rotate(-70)skewX(3.1805546814635176e-15)scale(0.9999999999999999,0.9999999999999999)" style="font-size: 65px; font-family: Impact; fill: rgb(206, 109, 189);">때</text><text text-anchor="middle" transform="translate(-83,-76)rotate(70)skewX(-3.1805546814635176e-15)scale(0.9999999999999999,0.9999999999999999)" style="font-size: 75px; font-family: Impact; fill: rgb(222, 158, 214);">사람</text><text text-anchor="middle" transform="translate(-2,-204)rotate(35)skewX(3.1805546814635176e-15)scale(0.9999999999999999,0.9999999999999999)" style="font-size: 67px; font-family: Impact; fill: rgb(99, 121, 57);">잘</text><text text-anchor="middle" transform="translate(-133,-220)rotate(-35)skewX(-3.1805546814635176e-15)scale(0.9999999999999999,0.9999999999999999)" style="font-size: 63px; font-family: Impact; fill: rgb(206, 219, 156);">볼</text><text text-anchor="middle" transform="translate(-269,-31)rotate(35)skewX(3.1805546814635176e-15)scale(0.9999999999999999,0.9999999999999999)" style="font-size: 71px; font-family: Impact; fill: rgb(189, 158, 57);">이</text><text text-anchor="middle" transform="translate(267,-22)rotate(-70)skewX(3.1805546814635176e-15)scale(0.9999999999999999,0.9999999999999999)" style="font-size: 68px; font-family: Impact; fill: rgb(173, 73, 74);">본</text><text text-anchor="middle" transform="translate(280,134)rotate(-70)skewX(3.1805546814635176e-15)scale(0.9999999999999999,0.9999999999999999)" style="font-size: 71px; font-family: Impact; fill: rgb(231, 150, 156);">수</text><text text-anchor="middle" transform="translate(429,247)rotate(0)skewX(0)scale(1,1)" style="font-size: 53px; font-family: Impact; fill: rgb(123, 65, 115);">와</text><text text-anchor="middle" transform="translate(191,226)rotate(70)skewX(-3.1805546814635176e-15)scale(0.9999999999999999,0.9999999999999999)" style="font-size: 62px; font-family: Impact; fill: rgb(165, 81, 148);">점</text><text text-anchor="middle" transform="translate(226,175)rotate(70)skewX(-3.1805546814635176e-15)scale(0.9999999999999999,0.9999999999999999)" style="font-size: 69px; font-family: Impact; fill: rgb(82, 84, 163);">그</text><text text-anchor="middle" transform="translate(428,7)rotate(0)skewX(0)scale(1,1)" style="font-size: 52px; font-family: Impact; fill: rgb(107, 110, 207);">끝</text><text text-anchor="middle" transform="translate(-149,-68)rotate(70)skewX(-3.1805546814635176e-15)scale(0.9999999999999999,0.9999999999999999)" style="font-size: 67px; font-family: Impact; fill: rgb(156, 158, 222);">만</text><text text-anchor="middle" transform="translate(-94,80)rotate(0)skewX(0)scale(1,1)" style="font-size: 73px; font-family: Impact; fill: rgb(99, 121, 57);">꼭</text><text text-anchor="middle" transform="translate(-334,256)" style="font-size: 43px; font-family: Impact; fill: rgb(231, 150, 156);">손</text><text text-anchor="middle" transform="translate(120,-265)rotate(70)skewX(-3.1805546814635176e-15)scale(0.9999999999999999,0.9999999999999999)" style="font-size: 53px; font-family: Impact; fill: rgb(222, 158, 214);">요</text><text text-anchor="middle" transform="translate(-245,-224)rotate(70)skewX(-3.1805546814635176e-15)scale(0.9999999999999999,0.9999999999999999)" style="font-size: 38px; font-family: Impact; fill: rgb(189, 158, 57);">보</text><text text-anchor="middle" transform="translate(-293,94)rotate(-35)skewX(-3.1805546814635176e-15)scale(0.9999999999999999,0.9999999999999999)" style="font-size: 30px; font-family: Impact; fill: rgb(206, 109, 189);">기</text><text text-anchor="middle" transform="translate(-395,39)rotate(-35)skewX(-3.1805546814635176e-15)scale(0.9999999999999999,0.9999999999999999)" style="font-size: 24px; font-family: Impact; fill: rgb(206, 219, 156);">니</text><text text-anchor="middle" transform="translate(25,-281)rotate(-70)skewX(3.1805546814635176e-15)scale(0.9999999999999999,0.9999999999999999)" style="font-size: 34px; font-family: Impact; fill: rgb(231, 150, 156);">고</text><text text-anchor="middle" transform="translate(-16,-82)rotate(35)skewX(3.1805546814635176e-15)scale(0.9999999999999999,0.9999999999999999)" style="font-size: 39px; font-family: Impact; fill: rgb(222, 158, 214);">비</text><text text-anchor="middle" transform="translate(397,-281)rotate(-70)skewX(3.1805546814635176e-15)scale(0.9999999999999999,0.9999999999999999)" style="font-size: 27px; font-family: Impact; fill: rgb(181, 207, 107);">세</text><text text-anchor="middle" transform="translate(342,-152)rotate(35)skewX(3.1805546814635176e-15)scale(0.9999999999999999,0.9999999999999999)" style="font-size: 68px; font-family: Impact; fill: rgb(189, 158, 57);">재미</text><text text-anchor="middle" transform="translate(414,-50)rotate(0)scale(1,1)" style="font-size: 65px; font-family: Impact; fill: rgb(231, 203, 148);">말</text><text text-anchor="middle" transform="translate(136,-159)rotate(70)skewX(-3.1805546814635176e-15)scale(0.9999999999999999,0.9999999999999999)" style="font-size: 53px; font-family: Impact; fill: rgb(173, 73, 74);">듯</text><text text-anchor="middle" transform="translate(287,-35)rotate(35)skewX(3.1805546814635176e-15)scale(0.9999999999999999,0.9999999999999999)" style="font-size: 62px; font-family: Impact; fill: rgb(123, 65, 115);">내</text><text text-anchor="middle" transform="translate(65,-99)rotate(0)scale(1,1)" style="font-size: 41px; font-family: Impact; fill: rgb(206, 109, 189);">바</text><text text-anchor="middle" transform="translate(-241,160)" style="font-size: 72px; font-family: Impact; fill: rgb(231, 203, 148);">하는</text><text text-anchor="middle" transform="translate(-353,-217)rotate(-70)skewX(3.1805546814635176e-15)scale(0.9999999999999999,0.9999999999999999)" style="font-size: 66px; font-family: Impact; fill: rgb(57, 59, 121);">할</text><text text-anchor="middle" transform="translate(-53,36)rotate(0)scale(1,1)" style="font-size: 55px; font-family: Impact; fill: rgb(140, 162, 82);">알</text><text text-anchor="middle" transform="translate(362,-225)rotate(35)skewX(3.1805546814635176e-15)scale(0.9999999999999999,0.9999999999999999)" style="font-size: 62px; font-family: Impact; fill: rgb(181, 207, 107);">또</text><text text-anchor="middle" transform="translate(-329,225)rotate(0)skewX(0)scale(1,1)" style="font-size: 63px; font-family: Impact; fill: rgb(181, 207, 107);">나</text><text text-anchor="middle" transform="translate(-113,-253)rotate(0)scale(1,1)" style="font-size: 48px; font-family: Impact; fill: rgb(206, 219, 156);">개</text><text text-anchor="middle" transform="translate(-309,-20)rotate(-70)skewX(3.1805546814635176e-15)scale(0.9999999999999999,0.9999999999999999)" style="font-size: 44px; font-family: Impact; fill: rgb(231, 186, 82);">가</text><text text-anchor="middle" transform="translate(-12,-126)rotate(-70)skewX(3.1805546814635176e-15)scale(0.9999999999999999,0.9999999999999999)" style="font-size: 33px; font-family: Impact; fill: rgb(156, 158, 222);">드</text><text text-anchor="middle" transform="translate(-180,-262)rotate(0)scale(1,1)" style="font-size: 38px; font-family: Impact; fill: rgb(206, 219, 156);">온</text><text text-anchor="middle" transform="translate(-300,-117)rotate(-35)skewX(-3.1805546814635176e-15)scale(0.9999999999999999,0.9999999999999999)" style="font-size: 33px; font-family: Impact; fill: rgb(132, 60, 57);">백</text><text text-anchor="middle" transform="translate(-252,106)rotate(35)skewX(3.1805546814635176e-15)scale(0.9999999999999999,0.9999999999999999)" style="font-size: 35px; font-family: Impact; fill: rgb(173, 73, 74);">시</text><text text-anchor="middle" transform="translate(161,91)rotate(0)scale(1,1)" style="font-size: 24px; font-family: Impact; fill: rgb(231, 150, 156);">노</text><text text-anchor="middle" transform="translate(-67,184)rotate(-35)skewX(-3.1805546814635176e-15)scale(0.9999999999999999,0.9999999999999999)" style="font-size: 66px; font-family: Impact; fill: rgb(123, 65, 115);">두</text><text text-anchor="middle" transform="translate(428,-168)rotate(70)skewX(-3.1805546814635176e-15)scale(0.9999999999999999,0.9999999999999999)" style="font-size: 36px; font-family: Impact; fill: rgb(165, 81, 148);">스</text><text text-anchor="middle" transform="translate(126,-132)rotate(0)scale(1,1)" style="font-size: 24px; font-family: Impact; fill: rgb(123, 65, 115);">끼</text><text text-anchor="middle" transform="translate(54,235)rotate(-70)skewX(3.1805546814635176e-15)scale(0.9999999999999999,0.9999999999999999)" style="font-size: 56px; font-family: Impact; fill: rgb(165, 81, 148);">삶</text><text text-anchor="middle" transform="translate(-25,-262)rotate(0)scale(1,1)" style="font-size: 43px; font-family: Impact; fill: rgb(140, 162, 82);">감</text><text text-anchor="middle" transform="translate(230,-233)rotate(0)scale(1,1)" style="font-size: 66px; font-family: Impact; fill: rgb(181, 207, 107);">하게</text><text text-anchor="middle" transform="translate(-399,147)rotate(-35)skewX(-3.1805546814635176e-15)scale(0.9999999999999999,0.9999999999999999)" style="font-size: 60px; font-family: Impact; fill: rgb(231, 186, 82);">속</text><text text-anchor="middle" transform="translate(6,241)rotate(-70)skewX(3.1805546814635176e-15)scale(0.9999999999999999,0.9999999999999999)" style="font-size: 49px; font-family: Impact; fill: rgb(173, 73, 74);">후</text><text text-anchor="middle" transform="translate(-379,-265)rotate(-35)skewX(-3.1805546814635176e-15)scale(0.9999999999999999,0.9999999999999999)" style="font-size: 37px; font-family: Impact; fill: rgb(206, 109, 189);">부</text><text text-anchor="middle" transform="translate(145,-15)rotate(35)skewX(3.1805546814635176e-15)scale(0.9999999999999999,0.9999999999999999)" style="font-size: 51px; font-family: Impact; fill: rgb(156, 158, 222);">눈</text><text text-anchor="middle" transform="translate(-176,161)rotate(70)skewX(-3.1805546814635176e-15)scale(0.9999999999999999,0.9999999999999999)" style="font-size: 45px; font-family: Impact; fill: rgb(57, 59, 121);">도</text><text text-anchor="middle" transform="translate(397,-190)rotate(35)skewX(3.1805546814635176e-15)scale(0.9999999999999999,0.9999999999999999)" style="font-size: 60px; font-family: Impact; fill: rgb(82, 84, 163);">평</text><text text-anchor="middle" transform="translate(-423,24)rotate(-70)skewX(3.1805546814635176e-15)scale(0.9999999999999999,0.9999999999999999)" style="font-size: 38px; font-family: Impact; fill: rgb(107, 110, 207);">됨</text><text text-anchor="middle" transform="translate(102,-22)rotate(0)scale(1,1)" style="font-size: 42px; font-family: Impact; fill: rgb(231, 203, 148);">틈</text><text text-anchor="middle" transform="translate(6,149)rotate(-35)skewX(-3.1805546814635176e-15)scale(0.9999999999999999,0.9999999999999999)" style="font-size: 27px; font-family: Impact; fill: rgb(132, 60, 57);">몸</text><text text-anchor="middle" transform="translate(294,119)rotate(-35)skewX(-3.1805546814635176e-15)scale(0.9999999999999999,0.9999999999999999)" style="font-size: 29px; font-family: Impact; fill: rgb(173, 73, 74);">급</text><text text-anchor="middle" transform="translate(-250,260)rotate(-70)skewX(3.1805546814635176e-15)scale(0.9999999999999999,0.9999999999999999)" style="font-size: 32px; font-family: Impact; fill: rgb(57, 59, 121);">습</text><text text-anchor="middle" transform="translate(430,-113)" style="font-size: 42px; font-family: Impact; fill: rgb(99, 121, 57);">년</text><text text-anchor="middle" transform="translate(-65,261)rotate(70)skewX(-3.1805546814635176e-15)scale(0.9999999999999999,0.9999999999999999)" style="font-size: 32px; font-family: Impact; fill: rgb(231, 186, 82);">옆</text><text text-anchor="middle" transform="translate(185,260)rotate(-70)skewX(3.1805546814635176e-15)scale(0.9999999999999999,0.9999999999999999)" style="font-size: 35px; font-family: Impact; fill: rgb(132, 60, 57);">되</text><text text-anchor="middle" transform="translate(-147,-21)rotate(0)skewX(0)scale(1,1)" style="font-size: 27px; font-family: Impact; fill: rgb(99, 121, 57);">답</text><text text-anchor="middle" transform="translate(288,-216)rotate(70)skewX(-3.1805546814635176e-15)scale(0.9999999999999999,0.9999999999999999)" style="font-size: 33px; font-family: Impact; fill: rgb(231, 186, 82);">주</text><text text-anchor="middle" transform="translate(-82,122)rotate(0)skewX(0)scale(1,1)" style="font-size: 36px; font-family: Impact; fill: rgb(123, 65, 115);">웃</text><text text-anchor="middle" transform="translate(312,269)rotate(0)scale(1,1)" style="font-size: 30px; font-family: Impact; fill: rgb(82, 84, 163);">과장</text><text text-anchor="middle" transform="translate(148,57)rotate(0)" style="font-size: 84px; font-family: Impact; fill: rgb(107, 110, 207);">감동</text><text text-anchor="middle" transform="translate(205,-105)rotate(-35)" style="font-size: 79px; font-family: Impact; fill: rgb(156, 158, 222);">입니다</text><text text-anchor="middle" transform="translate(155,129)rotate(0)" style="font-size: 78px; font-family: Impact; fill: rgb(99, 121, 57);">좋은</text><text text-anchor="middle" transform="translate(-3,141)rotate(0)" style="font-size: 74px; font-family: Impact; fill: rgb(140, 162, 82);">편견</text><text text-anchor="middle" transform="translate(-199,-145)rotate(-35)" style="font-size: 73px; font-family: Impact; fill: rgb(181, 207, 107);">마음</text><text text-anchor="middle" transform="translate(131,-196)rotate(0)" style="font-size: 72px; font-family: Impact; fill: rgb(231, 186, 82);">있는</text><text text-anchor="middle" transform="translate(-45,-198)rotate(-70)" style="font-size: 70px; font-family: Impact; fill: rgb(206, 219, 156);">여운</text><text text-anchor="middle" transform="translate(296,-85)rotate(0)" style="font-size: 70px; font-family: Impact; fill: rgb(140, 109, 49);">인생</text><text text-anchor="middle" transform="translate(-297,30)rotate(70)" style="font-size: 69px; font-family: Impact; fill: rgb(189, 158, 57);">상영</text><text text-anchor="middle" transform="translate(-313,80)rotate(-70)" style="font-size: 69px; font-family: Impact; fill: rgb(231, 186, 82);">차별</text><text text-anchor="middle" transform="translate(-362,10)rotate(-70)" style="font-size: 68px; font-family: Impact; fill: rgb(231, 203, 148);">보세요</text><text text-anchor="middle" transform="translate(-240,-227)rotate(-35)" style="font-size: 68px; font-family: Impact; fill: rgb(132, 60, 57);">배우</text><text text-anchor="middle" transform="translate(382,136)rotate(70)" style="font-size: 67px; font-family: Impact; fill: rgb(173, 73, 74);">많은</text><text text-anchor="middle" transform="translate(138,197)rotate(0)" style="font-size: 66px; font-family: Impact; fill: rgb(214, 97, 107);">우정</text><text text-anchor="middle" transform="translate(-381,-131)rotate(-70)" style="font-size: 66px; font-family: Impact; fill: rgb(231, 150, 156);">가슴</text><text text-anchor="middle" transform="translate(3,206)rotate(0)" style="font-size: 66px; font-family: Impact; fill: rgb(123, 65, 115);">토니</text><text text-anchor="middle" transform="translate(-202,227)rotate(0)" style="font-size: 65px; font-family: Impact; fill: rgb(165, 81, 148);">합니다</text><text text-anchor="middle" transform="translate(-86,-6)rotate(-70)" style="font-size: 64px; font-family: Impact; fill: rgb(123, 65, 115);">관</text><text text-anchor="middle" transform="translate(-357,189)rotate(-35)" style="font-size: 64px; font-family: Impact; fill: rgb(206, 109, 189);">다시</text><text text-anchor="middle" transform="translate(293,238)rotate(0)" style="font-size: 62px; font-family: Impact; fill: rgb(231, 186, 82);">된</text><text text-anchor="middle" transform="translate(-319,-262)rotate(-70)" style="font-size: 61px; font-family: Impact; fill: rgb(222, 158, 214);">한</text><text text-anchor="middle" transform="translate(-58,228)rotate(-70)" style="font-size: 60px; font-family: Impact; fill: rgb(57, 59, 121);">참</text><text text-anchor="middle" transform="translate(111,229)rotate(70)" style="font-size: 58px; font-family: Impact; fill: rgb(82, 84, 163);">중</text><text text-anchor="middle" transform="translate(339,229)rotate(70)" style="font-size: 57px; font-family: Impact; fill: rgb(107, 110, 207);">안</text><text text-anchor="middle" transform="translate(37,-262)rotate(70)" style="font-size: 55px; font-family: Impact; fill: rgb(140, 162, 82);">돈</text><text text-anchor="middle" transform="translate(-430,-253)rotate(0)" style="font-size: 53px; font-family: Impact; fill: rgb(156, 158, 222);">큰</text><text text-anchor="middle" transform="translate(430,-251)rotate(0)" style="font-size: 51px; font-family: Impact; fill: rgb(99, 121, 57);">낸</text><text text-anchor="middle" transform="translate(-377,250)rotate(0)" style="font-size: 51px; font-family: Impact; fill: rgb(140, 162, 82);">제</text><text text-anchor="middle" transform="translate(-406,-50)rotate(-70)" style="font-size: 51px; font-family: Impact; fill: rgb(57, 59, 121);">게</text><text text-anchor="middle" transform="translate(-31,-157)rotate(-35)" style="font-size: 49px; font-family: Impact; fill: rgb(165, 81, 148);">난</text><text text-anchor="middle" transform="translate(-344,-95)rotate(-35)" style="font-size: 48px; font-family: Impact; fill: rgb(206, 219, 156);">움</text><text text-anchor="middle" transform="translate(-167,243)rotate(70)" style="font-size: 46px; font-family: Impact; fill: rgb(181, 207, 107);">들</text><text text-anchor="middle" transform="translate(-202,112)rotate(0)" style="font-size: 46px; font-family: Impact; fill: rgb(140, 162, 82);">살</text><text text-anchor="middle" transform="translate(-265,-170)rotate(-35)" style="font-size: 45px; font-family: Impact; fill: rgb(206, 219, 156);">과</text><text text-anchor="middle" transform="translate(-196,245)rotate(-70)" style="font-size: 45px; font-family: Impact; fill: rgb(140, 109, 49);">굿</text><text text-anchor="middle" transform="translate(-430,250)rotate(0)" style="font-size: 43px; font-family: Impact; fill: rgb(189, 158, 57);">롱</text><text text-anchor="middle" transform="translate(67,247)rotate(70)" style="font-size: 42px; font-family: Impact; fill: rgb(231, 186, 82);">뒤</text><text text-anchor="middle" transform="translate(-219,27)rotate(-35)" style="font-size: 41px; font-family: Impact; fill: rgb(231, 203, 148);">별</text><text text-anchor="middle" transform="translate(38,-183)rotate(35)" style="font-size: 38px; font-family: Impact; fill: rgb(107, 110, 207);">너</text><text text-anchor="middle" transform="translate(-292,263)rotate(0)" style="font-size: 38px; font-family: Impact; fill: rgb(132, 60, 57);">늘</text><text text-anchor="middle" transform="translate(-430,-204)rotate(0)" style="font-size: 38px; font-family: Impact; fill: rgb(99, 121, 57);">를</text><text text-anchor="middle" transform="translate(429,47)rotate(70)" style="font-size: 38px; font-family: Impact; fill: rgb(173, 73, 74);">올</text><text text-anchor="middle" transform="translate(83,216)rotate(0)" style="font-size: 38px; font-family: Impact; fill: rgb(214, 97, 107);">면</text><text text-anchor="middle" transform="translate(239,251)rotate(70)" style="font-size: 38px; font-family: Impact; fill: rgb(231, 150, 156);">명</text><text text-anchor="middle" transform="translate(283,48)rotate(35)" style="font-size: 38px; font-family: Impact; fill: rgb(231, 186, 82);">작</text><text text-anchor="middle" transform="translate(320,63)rotate(70)" style="font-size: 38px; font-family: Impact; fill: rgb(140, 162, 82);">짱</text><text text-anchor="middle" transform="translate(200,-206)rotate(70)" style="font-size: 36px; font-family: Impact; fill: rgb(123, 65, 115);">선</text><text text-anchor="middle" transform="translate(-431,-156)rotate(-70)" style="font-size: 35px; font-family: Impact; fill: rgb(214, 97, 107);">자</text><text text-anchor="middle" transform="translate(366,260)rotate(70)" style="font-size: 35px; font-family: Impact; fill: rgb(57, 59, 121);">치</text><text text-anchor="middle" transform="translate(-142,-117)rotate(70)" style="font-size: 35px; font-family: Impact; fill: rgb(165, 81, 148);">허</text><text text-anchor="middle" transform="translate(-431,-12)rotate(-35)" style="font-size: 34px; font-family: Impact; fill: rgb(206, 109, 189);">겉</text><text text-anchor="middle" transform="translate(-108,267)rotate(0)" style="font-size: 34px; font-family: Impact; fill: rgb(222, 158, 214);">굳</text><text text-anchor="middle" transform="translate(98,-268)rotate(0)" style="font-size: 34px; font-family: Impact; fill: rgb(57, 59, 121);">대</text><text text-anchor="middle" transform="translate(448,95)rotate(0)" style="font-size: 34px; font-family: Impact; fill: rgb(82, 84, 163);">최</text><text text-anchor="middle" transform="translate(-276,-270)rotate(0)" style="font-size: 34px; font-family: Impact; fill: rgb(107, 110, 207);">캐</text><text text-anchor="middle" transform="translate(-69,-272)rotate(0)" style="font-size: 33px; font-family: Impact; fill: rgb(156, 158, 222);">물</text><text text-anchor="middle" transform="translate(-65,68)rotate(70)" style="font-size: 32px; font-family: Impact; fill: rgb(99, 121, 57);">단</text><text text-anchor="middle" transform="translate(67,146)rotate(35)" style="font-size: 32px; font-family: Impact; fill: rgb(140, 162, 82);">어</text><text text-anchor="middle" transform="translate(289,163)rotate(35)" style="font-size: 32px; font-family: Impact; fill: rgb(214, 97, 107);">지</text><text text-anchor="middle" transform="translate(191,-18)rotate(0)" style="font-size: 32px; font-family: Impact; fill: rgb(181, 207, 107);">질</text><text text-anchor="middle" transform="translate(448,125)rotate(0)" style="font-size: 32px; font-family: Impact; fill: rgb(206, 219, 156);">표</text><text text-anchor="middle" transform="translate(-293,-40)rotate(-35)" style="font-size: 30px; font-family: Impact; fill: rgb(140, 109, 49);">깨</text><text text-anchor="middle" transform="translate(-169,-118)rotate(0)" style="font-size: 30px; font-family: Impact; fill: rgb(231, 150, 156);">류</text><text text-anchor="middle" transform="translate(-109,-189)rotate(-70)" style="font-size: 30px; font-family: Impact; fill: rgb(165, 81, 148);">막</text><text text-anchor="middle" transform="translate(-323,-196)rotate(0)" style="font-size: 30px; font-family: Impact; fill: rgb(181, 207, 107);">묘</text><text text-anchor="middle" transform="translate(170,-125)rotate(35)" style="font-size: 30px; font-family: Impact; fill: rgb(231, 203, 148);">배</text><text text-anchor="middle" transform="translate(-445,118)rotate(0)" style="font-size: 30px; font-family: Impact; fill: rgb(189, 158, 57);">컵</text><text text-anchor="middle" transform="translate(38,8)rotate(0)" style="font-size: 29px; font-family: Impact; fill: rgb(123, 65, 115);">까</text><text text-anchor="middle" transform="translate(-401,-85)rotate(35)" style="font-size: 29px; font-family: Impact; fill: rgb(231, 186, 82);">낼</text><text text-anchor="middle" transform="translate(-84,-77)rotate(70)" style="font-size: 29px; font-family: Impact; fill: rgb(231, 203, 148);">달</text><text text-anchor="middle" transform="translate(-445,65)rotate(0)" style="font-size: 29px; font-family: Impact; fill: rgb(132, 60, 57);">밖</text><text text-anchor="middle" transform="translate(156,65)rotate(-35)" style="font-size: 29px; font-family: Impact; fill: rgb(173, 73, 74);">색</text><text text-anchor="middle" transform="translate(145,125)rotate(70)" style="font-size: 29px; font-family: Impact; fill: rgb(214, 97, 107);">순</text><text text-anchor="middle" transform="translate(198,262)rotate(70)" style="font-size: 29px; font-family: Impact; fill: rgb(231, 150, 156);">않</text><text text-anchor="middle" transform="translate(235,-182)rotate(70)" style="font-size: 29px; font-family: Impact; fill: rgb(123, 65, 115);">열</text><text text-anchor="middle" transform="translate(27,267)rotate(-70)" style="font-size: 29px; font-family: Impact; fill: rgb(173, 73, 74);">초</text><text text-anchor="middle" transform="translate(-195,199)rotate(-35)" style="font-size: 29px; font-family: Impact; fill: rgb(165, 81, 148);">통</text><text text-anchor="middle" transform="translate(137,266)rotate(-70)" style="font-size: 29px; font-family: Impact; fill: rgb(206, 109, 189);">펍</text><text text-anchor="middle" transform="translate(221,181)rotate(-35)" style="font-size: 27px; font-family: Impact; fill: rgb(222, 158, 214);">광</text><text text-anchor="middle" transform="translate(-332,187)rotate(0)" style="font-size: 27px; font-family: Impact; fill: rgb(173, 73, 74);">구</text><text text-anchor="middle" transform="translate(301,-167)rotate(0)" style="font-size: 27px; font-family: Impact; fill: rgb(57, 59, 121);">꼽</text><text text-anchor="middle" transform="translate(-247,-95)rotate(-35)" style="font-size: 27px; font-family: Impact; fill: rgb(82, 84, 163);">담</text><text text-anchor="middle" transform="translate(-441,172)rotate(0)" style="font-size: 27px; font-family: Impact; fill: rgb(107, 110, 207);">돼</text><text text-anchor="middle" transform="translate(36,170)rotate(0)" style="font-size: 27px; font-family: Impact; fill: rgb(156, 158, 222);">든</text><text text-anchor="middle" transform="translate(76,-212)rotate(-70)" style="font-size: 27px; font-family: Impact; fill: rgb(99, 121, 57);">땅</text><text text-anchor="middle" transform="translate(374,-86)rotate(0)" style="font-size: 27px; font-family: Impact; fill: rgb(140, 162, 82);">먼</text><text text-anchor="middle" transform="translate(82,81)rotate(-35)" style="font-size: 27px; font-family: Impact; fill: rgb(181, 207, 107);">모</text><text text-anchor="middle" transform="translate(237,30)rotate(0)" style="font-size: 27px; font-family: Impact; fill: rgb(165, 81, 148);">법</text><text text-anchor="middle" transform="translate(-219,-175)rotate(-35)" style="font-size: 27px; font-family: Impact; fill: rgb(206, 219, 156);">벽</text><text text-anchor="middle" transform="translate(-399,262)rotate(70)" style="font-size: 27px; font-family: Impact; fill: rgb(140, 109, 49);">빚</text><text text-anchor="middle" transform="translate(243,-266)rotate(-70)" style="font-size: 27px; font-family: Impact; fill: rgb(189, 158, 57);">서</text><text text-anchor="middle" transform="translate(-183,-228)rotate(-35)" style="font-size: 27px; font-family: Impact; fill: rgb(231, 186, 82);">씨</text><text text-anchor="middle" transform="translate(264,-228)rotate(-70)" style="font-size: 27px; font-family: Impact; fill: rgb(82, 84, 163);">코</text><text text-anchor="middle" transform="translate(411,267)rotate(70)" style="font-size: 27px; font-family: Impact; fill: rgb(231, 203, 148);">투</text><text text-anchor="middle" transform="translate(-429,208)rotate(-35)" style="font-size: 27px; font-family: Impact; fill: rgb(132, 60, 57);">행</text><text text-anchor="middle" transform="translate(-4,110)rotate(35)" style="font-size: 24px; font-family: Impact; fill: rgb(173, 73, 74);">갑</text><text text-anchor="middle" transform="translate(-170,82)rotate(35)" style="font-size: 24px; font-family: Impact; fill: rgb(214, 97, 107);">곁</text><text text-anchor="middle" transform="translate(448,-63)rotate(0)" style="font-size: 24px; font-family: Impact; fill: rgb(231, 150, 156);">권</text><text text-anchor="middle" transform="translate(-175,269)rotate(-70)" style="font-size: 24px; font-family: Impact; fill: rgb(123, 65, 115);">껏</text><text text-anchor="middle" transform="translate(-159,-282)rotate(70)" style="font-size: 24px; font-family: Impact; fill: rgb(165, 81, 148);">꽉</text><text text-anchor="middle" transform="translate(-314,126)rotate(-35)" style="font-size: 24px; font-family: Impact; fill: rgb(206, 109, 189);">꿀</text><text text-anchor="middle" transform="translate(444,196)rotate(0)" style="font-size: 24px; font-family: Impact; fill: rgb(222, 158, 214);">꿈</text><text text-anchor="middle" transform="translate(-428,276)rotate(0)" style="font-size: 24px; font-family: Impact; fill: rgb(57, 59, 121);">내일</text><text text-anchor="middle" transform="translate(42,269)rotate(70)" style="font-size: 24px; font-family: Impact; fill: rgb(140, 109, 49);">무</text><text text-anchor="middle" transform="translate(40,133)rotate(-35)" style="font-size: 24px; font-family: Impact; fill: rgb(82, 84, 163);">문</text></g></svg>